<svg version="1.2" xmlns="http://www.w3.org/2000/svg" viewBox="0 0 1080 1080" width="1080" height="1080"><style>.a{fill:#441b91}</style><path class="a" d="m110 940h123.2v-201.6c20 4 36 5.6 55.2 5.6 128.8 0 209.6-79.2 209.6-204 0-131.2-78.4-200.8-225.6-200.8-52.8 0-102.4 5.6-162.4 17.6zm123.2-496.8c17.6-4 28-4.8 42.4-4.8 63.2 0 96.8 35.2 96.8 101.6 0 67.2-36.8 104.8-100.8 104.8-12 0-21.6-0.8-38.4-4.8zm350.4 290.4c53.6 8 86.4 11.2 127.2 11.2 172 0 260.8-72 260.8-210.4 0-118.4-72-195.2-181.6-195.2-28 0-51.2 4-83.2 16v-215.2h-123.2zm123.2-286.4c17.6-6.4 32-8.8 49.6-8.8 56.8 0 89.6 37.6 89.6 102.4 0 70.4-37.6 104.8-116.8 104.8-8 0-12.8 0-22.4 0z"/></svg>