<svg version="1.2" xmlns="http://www.w3.org/2000/svg" viewBox="0 0 981 389" width="981" height="389"><style></style><path  d="m57.7 284h27.7v-45.4c4.5 0.9 8.1 1.3 12.4 1.3 29 0 47.2-17.8 47.2-45.9 0-29.5-17.6-45.2-50.8-45.2-11.8 0-23 1.3-36.5 4zm27.7-111.8c4-0.9 6.3-1.1 9.6-1.1 14.2 0 21.7 7.9 21.7 22.9 0 15.1-8.2 23.6-22.6 23.6-2.7 0-4.9-0.2-8.7-1.1zm78.3 66.8h27.7v-63.8c5.8-1.9 11.2-2.8 17.5-2.8 6.1 0 11.3 0.9 16.4 2.8v-23.5c-6.3-2-11.7-2.9-19.5-2.9-13.5 0-28 2.9-42.1 8.4zm75.3-60.4c10.8-5.6 22.3-8.5 32.5-8.5 7.1 0 9.6 1.8 9.6 6.8v6.2c-34 2.8-47.9 11.8-47.9 31.3 0 18 10.4 26.1 33.7 26.1 11.5 0 27.1-1.3 39.6-3.1v-56.3c0-11.5-0.8-16.9-3.1-21.1-4.1-7.4-13.5-11.1-27.7-11.1-12.8 0-24.5 2.5-36.7 8.2zm43.3 41.3c-5.4 0.9-9.1 1.2-13.3 1.2-7.5 0-11-2.5-11-7.9 0-7.2 6-10.1 24.3-11.9zm44.7 15.9c8.8 3.7 17.3 5.4 27.7 5.4 24.7 0 37.4-9.6 37.4-28.1 0-12.1-5.4-18.6-22.6-26.5-4.7-2.1-8.3-3.9-11-5.2-1.3-0.5-2.4-1.3-3.1-2-0.9-0.9-1.4-2.1-1.4-3.4 0-3.8 4.3-5.9 12-5.9 8 0 14.6 1.8 22.9 5.7v-21.9c-8.6-3.6-16-5.1-24.8-5.1-23.1 0-37.1 10.6-37.1 27.9 0 12.6 5.4 19.1 22.5 27l11.1 5.2c3.1 1.3 4.5 3.1 4.5 5.4 0 3.6-3.9 5.6-11.3 5.6-9.2 0-16.9-2.1-26.8-7zm84.4 2c12.1 1.8 19.4 2.5 28.6 2.5 38.7 0 58.7-16.2 58.7-47.3 0-26.7-16.2-44-40.9-44-6.3 0-11.5 0.9-18.7 3.6v-48.4h-27.7zm27.7-64.4c4-1.5 7.2-2 11.2-2 12.8 0 20.1 8.5 20.1 23 0 15.9-8.4 23.6-26.2 23.6-1.8 0-2.9 0-5.1 0zm78.3 65.9h27.7v-63.7c5.8-2 11.2-2.9 17.5-2.9 6.1 0 11.3 0.9 16.4 2.9v-23.6c-6.3-2-11.7-2.9-19.5-2.9-13.5 0-28 2.9-42.1 8.5zm74 0h27.7v-88.2h-27.7zm0-102.4h27.7v-28.5h-27.7zm106.6 13.7c-4.2-1.1-7.6-1.4-12.1-1.4-29 0-47.7 18.3-47.7 46.6 0 29.3 17.6 44.6 51.5 44.6 11.3 0 21.8-1.1 36-3.8v-132.3h-27.7zm0 66.8c-4 0.6-6.5 0.7-9.6 0.7-14.2 0-21.9-8.1-21.9-22.8 0-15.1 8.1-23.8 22.1-23.8 3.4 0 6.1 0.4 9.4 1.5zm48.4 62.6c9.7 3.8 19.1 5.4 29.9 5.4 21.2 0 36.1-6.7 44.8-20.2 5.9-9.1 7.9-20.3 7.9-44.1 0-2.5 0-4.1 0-7.5-0.2-3.8-0.2-7.6-0.4-11.4l-0.1-15.1-0.4-11.7v-2.9c5.6 0.6 8.3 1.1 15.7 2.6v-21.8c-13.4-2.7-24.3-4-36.2-4-40.5 0-63.4 17.8-63.4 49.3 0 25.4 15.5 41.4 39.8 41.4 7.2 0 12.6-1 18-3.7 0 0.1 0 0.3 0 0.5 0 17.6-7.7 25-25.9 25-10.3 0-20-2.3-29.7-7.4zm55.1-106.2l0.1 9.2 0.2 12.8c0 3.8 0.2 7.4 0.2 10.6v7.6 2c-3.6 1-6.7 1.8-10.4 1.8-12.3 0-19.1-8-19.1-21.8 0-9.7 3.4-16.6 10.1-20.4 4.3-2.7 10.6-4.1 16-3.9h2c0.3 0 0.5 0 0.9 0zm135 29.3l0.1-2c0.2-3 0.2-5.5 0.2-7 0-28.8-14.7-45.2-40.5-45.2-26.8 0-44.4 18.4-44.4 46.7 0 28.8 17.2 45.7 46.8 45.7 11.8 0 22.8-2.7 33.4-8.3v-21.4c-8.4 5.6-18.5 8.4-29.5 8.4-14.6 0-23-5.9-23.9-16.9zm-57.4-19.2c1.4-9.6 7.9-15.5 17.2-15.5 9 0 14.3 5.4 15.2 15.5z"/></svg>