<svg version="1.2" xmlns="http://www.w3.org/2000/svg" viewBox="0 0 753 596" width="753" height="596"><style>.a{fill:#441b91}</style><path class="a" d="m34.4 554h116.9v-176.4c16.8 0.7 26.6 1.4 36.4 1.4 63 0 107.8-9.8 144.9-31.5 44.8-25.9 70-74.2 70-130.2 0-54.6-22.4-100.8-61.6-128.8-37.1-26.6-83.3-37.1-160.3-37.1-39.2 0-81.9 2.1-135.1 5.6l-11.2 0.7zm116.9-407.4c21-3.5 31.5-3.5 43.4-3.5 61.6 0 92.4 23.8 92.4 72.8 0 50.4-30.8 71.4-107.1 71.4-9.1 0-16.8 0-28.7-2.1zm461.3 62.3c-16.1-4.2-29.4-5.6-46.9-5.6-112.7 0-185.5 71.4-185.5 181.3 0 114.1 68.6 173.6 200.2 173.6 44.1 0 84.7-4.2 140-14.7v-514.5h-107.8zm0 259.7c-15.4 2.1-25.2 2.8-37.1 2.8-55.3 0-85.4-31.5-85.4-88.9 0-58.8 31.5-92.4 86.1-92.4 13.3 0 23.8 1.4 36.4 5.6z"/></svg>